<svg width="7" height="11" viewBox="0 0 7 11" fill="none" xmlns="http://www.w3.org/2000/svg">
<path d="M4.10026 3.91187C4.3377 3.357 4.98731 3.08158 5.55121 3.29668V3.29668C6.1151 3.51179 6.37975 4.13597 6.14231 4.69084L4.18258 9.2705C3.94514 9.82536 3.29553 10.1008 2.73164 9.88568V9.88568C2.16774 9.67058 1.90309 9.04639 2.14053 8.49153L4.10026 3.91187Z" fill="#9833B0"/>
<path d="M2.38965 1.00467C2.62708 0.449805 3.27669 0.174379 3.84059 0.389486V0.389486C4.40448 0.604594 4.66913 1.22878 4.43169 1.78364L2.47196 6.36331C2.23453 6.91817 1.58492 7.1936 1.02102 6.97849V6.97849C0.457128 6.76338 0.192481 6.1392 0.429918 5.58434L2.38965 1.00467Z" fill="#E33B14"/>
</svg>
