<svg width="150" height="75" viewBox="0 0 52 25" fill="none" xmlns="http://www.w3.org/2000/svg">
<path d="M3.75049 12H2.4668V5.24854H0.157227V4.14746H6.06006V5.24854H3.75049V12ZM9.72852 12.1074C8.80469 12.1074 8.08138 11.8389 7.55859 11.3018C7.03939 10.7611 6.77979 10.0181 6.77979 9.07275C6.77979 8.10238 7.02148 7.33968 7.50488 6.78467C7.98828 6.22965 8.65251 5.95215 9.49756 5.95215C10.2817 5.95215 10.9012 6.19027 11.356 6.6665C11.8107 7.14274 12.0381 7.79801 12.0381 8.63232V9.31445H8.07959C8.09749 9.89095 8.25326 10.335 8.54688 10.6465C8.84049 10.9544 9.25407 11.1084 9.7876 11.1084C10.1385 11.1084 10.4644 11.0762 10.7651 11.0117C11.0695 10.9437 11.3953 10.8327 11.7427 10.6787V11.7046C11.4347 11.8514 11.1232 11.9552 10.8081 12.0161C10.493 12.077 10.1331 12.1074 9.72852 12.1074ZM9.49756 6.9082C9.09652 6.9082 8.77425 7.03532 8.53076 7.28955C8.29085 7.54378 8.14762 7.91439 8.10107 8.40137H10.7974C10.7902 7.91081 10.672 7.5402 10.4429 7.28955C10.2137 7.03532 9.8986 6.9082 9.49756 6.9082ZM15.8677 12.1074C14.9689 12.1074 14.285 11.846 13.8159 11.3232C13.3504 10.7969 13.1177 10.0431 13.1177 9.06201C13.1177 8.06299 13.3612 7.29492 13.8481 6.75781C14.3387 6.2207 15.0459 5.95215 15.9697 5.95215C16.5964 5.95215 17.1603 6.06852 17.6616 6.30127L17.2803 7.31641C16.7467 7.10872 16.3063 7.00488 15.959 7.00488C14.9313 7.00488 14.4175 7.68701 14.4175 9.05127C14.4175 9.71729 14.5446 10.2186 14.7988 10.5552C15.0566 10.8882 15.4326 11.0547 15.9268 11.0547C16.4889 11.0547 17.0207 10.915 17.522 10.6357V11.7368C17.2964 11.8693 17.0547 11.9642 16.7969 12.0215C16.5426 12.0788 16.2329 12.1074 15.8677 12.1074ZM24.1445 12H22.877V8.34766C22.877 7.88932 22.7839 7.54736 22.5977 7.32178C22.415 7.09619 22.1232 6.9834 21.7222 6.9834C21.1922 6.9834 20.8019 7.14274 20.5513 7.46143C20.3042 7.77653 20.1807 8.30648 20.1807 9.05127V12H18.9185V3.64258H20.1807V5.76416C20.1807 6.10433 20.1592 6.46777 20.1162 6.85449H20.1968C20.3687 6.56803 20.6068 6.34603 20.9111 6.18848C21.2191 6.03092 21.5771 5.95215 21.9854 5.95215C23.4248 5.95215 24.1445 6.67725 24.1445 8.12744V12ZM30.2783 5.83936C30.2783 6.06494 30.3374 6.27799 30.4556 6.47852C30.5773 6.67904 30.7456 6.89209 30.9604 7.11768C31.3651 6.88851 31.6479 6.67546 31.8091 6.47852C31.9738 6.27799 32.0562 6.0542 32.0562 5.80713C32.0562 5.57438 31.9774 5.38818 31.8198 5.24854C31.6659 5.10889 31.46 5.03906 31.2021 5.03906C30.9193 5.03906 30.6937 5.11247 30.5254 5.25928C30.3607 5.40251 30.2783 5.59587 30.2783 5.83936ZM31.0786 11.0225C31.7339 11.0225 32.2943 10.8309 32.7598 10.4478L30.7026 8.42285C30.3231 8.66634 30.0617 8.89551 29.9185 9.11035C29.7752 9.32161 29.7036 9.56331 29.7036 9.83545C29.7036 10.1864 29.8271 10.4728 30.0742 10.6948C30.3249 10.9132 30.6597 11.0225 31.0786 11.0225ZM28.3716 9.92139C28.3716 9.45231 28.4862 9.04411 28.7153 8.69678C28.9445 8.34587 29.3581 7.99854 29.9561 7.65479C29.6159 7.25732 29.3831 6.92253 29.2578 6.65039C29.1361 6.37467 29.0752 6.09001 29.0752 5.79639C29.0752 5.25212 29.2686 4.82243 29.6553 4.50732C30.0456 4.19222 30.5684 4.03467 31.2236 4.03467C31.8574 4.03467 32.3551 4.18864 32.7168 4.49658C33.0785 4.80094 33.2593 5.21273 33.2593 5.73193C33.2593 6.14014 33.1375 6.51074 32.894 6.84375C32.6541 7.17676 32.2513 7.50977 31.6855 7.84277L33.5439 9.63672C33.834 9.25358 34.0757 8.69141 34.269 7.9502H35.5688C35.3182 8.96712 34.9172 9.79606 34.3657 10.437L35.9824 12H34.355L33.5547 11.2212C33.1895 11.5148 32.7992 11.7368 32.3838 11.8872C31.972 12.034 31.5155 12.1074 31.0142 12.1074C30.1906 12.1074 29.5443 11.9123 29.0752 11.522C28.6061 11.1317 28.3716 10.5981 28.3716 9.92139Z" fill="white"/>
<path d="M23.4458 17.9985C23.4458 19.2948 23.0859 20.2866 22.3662 20.9741C21.6465 21.658 20.6099 22 19.2563 22H17.0596V14.1475H19.4873C20.737 14.1475 21.7091 14.484 22.4038 15.1572C23.0985 15.8304 23.4458 16.7775 23.4458 17.9985ZM22.0923 18.0415C22.0923 16.1616 21.2132 15.2217 19.4551 15.2217H18.3433V20.9204H19.2563C21.147 20.9204 22.0923 19.9608 22.0923 18.0415ZM27.5977 22.1074C26.6738 22.1074 25.9505 21.8389 25.4277 21.3018C24.9085 20.7611 24.6489 20.0181 24.6489 19.0728C24.6489 18.1024 24.8906 17.3397 25.374 16.7847C25.8574 16.2297 26.5216 15.9521 27.3667 15.9521C28.1509 15.9521 28.7703 16.1903 29.2251 16.6665C29.6799 17.1427 29.9072 17.798 29.9072 18.6323V19.3145H25.9487C25.9666 19.891 26.1224 20.335 26.416 20.6465C26.7096 20.9544 27.1232 21.1084 27.6567 21.1084C28.0076 21.1084 28.3335 21.0762 28.6343 21.0117C28.9386 20.9437 29.2645 20.8327 29.6118 20.6787V21.7046C29.3039 21.8514 28.9924 21.9552 28.6772 22.0161C28.3621 22.077 28.0023 22.1074 27.5977 22.1074ZM27.3667 16.9082C26.9657 16.9082 26.6434 17.0353 26.3999 17.2896C26.16 17.5438 26.0168 17.9144 25.9702 18.4014H28.6665C28.6593 17.9108 28.5412 17.5402 28.312 17.2896C28.0828 17.0353 27.7677 16.9082 27.3667 16.9082ZM35.332 20.3081C35.332 20.8882 35.1208 21.334 34.6982 21.6455C34.2757 21.9535 33.6706 22.1074 32.8828 22.1074C32.0915 22.1074 31.4559 21.9875 30.9761 21.7476V20.6572C31.6743 20.9795 32.3242 21.1406 32.9258 21.1406C33.7028 21.1406 34.0913 20.9061 34.0913 20.437C34.0913 20.2866 34.0483 20.1613 33.9624 20.061C33.8765 19.9608 33.735 19.8569 33.5381 19.7495C33.3411 19.6421 33.0672 19.5203 32.7163 19.3843C32.0324 19.1193 31.5687 18.8543 31.3252 18.5894C31.0853 18.3244 30.9653 17.9806 30.9653 17.5581C30.9653 17.0496 31.1694 16.6558 31.5776 16.3765C31.9894 16.0936 32.548 15.9521 33.2534 15.9521C33.9517 15.9521 34.6123 16.0936 35.2354 16.3765L34.8271 17.3271C34.1862 17.0622 33.6473 16.9297 33.2104 16.9297C32.5444 16.9297 32.2114 17.1195 32.2114 17.499C32.2114 17.6852 32.2974 17.8428 32.4692 17.9717C32.6447 18.1006 33.0243 18.2778 33.6079 18.5034C34.0985 18.6932 34.4548 18.8669 34.6768 19.0244C34.8988 19.182 35.0635 19.3646 35.1709 19.5723C35.2783 19.7764 35.332 20.0216 35.332 20.3081ZM37.9639 22H36.7017V16.0596H37.9639V22ZM36.6265 14.4858C36.6265 14.2603 36.6873 14.0866 36.8091 13.9648C36.9344 13.8431 37.1117 13.7822 37.3408 13.7822C37.5628 13.7822 37.7347 13.8431 37.8564 13.9648C37.9818 14.0866 38.0444 14.2603 38.0444 14.4858C38.0444 14.7007 37.9818 14.8708 37.8564 14.9961C37.7347 15.1178 37.5628 15.1787 37.3408 15.1787C37.1117 15.1787 36.9344 15.1178 36.8091 14.9961C36.6873 14.8708 36.6265 14.7007 36.6265 14.4858ZM44.7905 16.0596V16.7524L43.7754 16.9404C43.8685 17.0658 43.9455 17.2197 44.0063 17.4023C44.0672 17.585 44.0977 17.7783 44.0977 17.9824C44.0977 18.5947 43.8864 19.0763 43.4639 19.4272C43.0413 19.7782 42.4595 19.9536 41.7183 19.9536C41.5285 19.9536 41.3566 19.9393 41.2026 19.9106C40.9305 20.0789 40.7944 20.2759 40.7944 20.5015C40.7944 20.6375 40.8571 20.7396 40.9824 20.8076C41.1113 20.8757 41.3459 20.9097 41.686 20.9097H42.7227C43.3779 20.9097 43.8757 21.0493 44.2158 21.3286C44.556 21.6079 44.7261 22.0107 44.7261 22.5371C44.7261 23.2103 44.4486 23.7295 43.8936 24.0947C43.3385 24.46 42.5365 24.6426 41.4873 24.6426C40.6781 24.6426 40.0604 24.4993 39.6343 24.2129C39.2082 23.9264 38.9951 23.5182 38.9951 22.9883C38.9951 22.623 39.1097 22.3151 39.3389 22.0645C39.5716 21.8174 39.8957 21.6455 40.311 21.5488C40.1427 21.4772 40.0031 21.3626 39.8921 21.2051C39.7847 21.0439 39.731 20.8757 39.731 20.7002C39.731 20.4782 39.7936 20.2902 39.9189 20.1362C40.0443 19.9823 40.2305 19.8301 40.4775 19.6797C40.1696 19.5472 39.9189 19.3324 39.7256 19.0352C39.5358 18.7344 39.4409 18.3835 39.4409 17.9824C39.4409 17.3379 39.6432 16.8384 40.0479 16.4839C40.4561 16.1294 41.0361 15.9521 41.7881 15.9521C41.9564 15.9521 42.1318 15.9647 42.3145 15.9897C42.5007 16.0112 42.6403 16.0345 42.7334 16.0596H44.7905ZM40.123 22.9238C40.123 23.196 40.2448 23.4054 40.4883 23.5522C40.7354 23.6991 41.0809 23.7725 41.5249 23.7725C42.2124 23.7725 42.7244 23.674 43.061 23.4771C43.3976 23.2801 43.5659 23.0187 43.5659 22.6929C43.5659 22.4351 43.4728 22.2507 43.2866 22.1396C43.104 22.0322 42.762 21.9785 42.2607 21.9785H41.3047C40.943 21.9785 40.6548 22.0627 40.4399 22.231C40.2287 22.4028 40.123 22.6338 40.123 22.9238ZM40.6655 17.9824C40.6655 18.3548 40.7604 18.6413 40.9502 18.8418C41.1436 19.0423 41.4193 19.1426 41.7773 19.1426C42.5078 19.1426 42.873 18.7523 42.873 17.9717C42.873 17.585 42.7817 17.2878 42.5991 17.0801C42.4201 16.8688 42.1462 16.7632 41.7773 16.7632C41.4121 16.7632 41.1346 16.867 40.9448 17.0747C40.7586 17.2824 40.6655 17.585 40.6655 17.9824ZM51.123 22H49.8555V18.3477C49.8555 17.8893 49.7624 17.5474 49.5762 17.3218C49.3936 17.0962 49.1017 16.9834 48.7007 16.9834C48.1672 16.9834 47.7769 17.141 47.5298 17.4561C47.2827 17.7712 47.1592 18.2993 47.1592 19.0405V22H45.897V16.0596H46.8853L47.0625 16.8384H47.127C47.306 16.5555 47.5602 16.3371 47.8896 16.1831C48.2191 16.0291 48.5843 15.9521 48.9854 15.9521C50.4105 15.9521 51.123 16.6772 51.123 18.1274V22Z" fill="white"/>
<path d="M44.1449 4.72113C44.3904 4.17352 45.0466 3.89605 45.6105 4.10138V4.10138C46.1744 4.30671 46.4325 4.91709 46.187 5.46469L44.2564 9.77114C44.0109 10.3187 43.3548 10.5962 42.7909 10.3909V10.3909C42.227 10.1856 41.9689 9.57518 42.2144 9.02757L44.1449 4.72113Z" fill="#9833B0"/>
<path d="M42.4343 1.94607C42.6798 1.39847 43.3359 1.121 43.8998 1.32633V1.32633C44.4637 1.53166 44.7219 2.14203 44.4764 2.68964L42.5458 6.99608C42.3003 7.54369 41.6442 7.82116 41.0803 7.61583V7.61583C40.5164 7.4105 40.2583 6.80012 40.5038 6.25252L42.4343 1.94607Z" fill="#E33B14"/>
</svg>
